<svg width="96" height="96" viewBox="0 0 96 96" fill="none" xmlns="http://www.w3.org/2000/svg">
<path d="M43.0508 25.64C43.0508 37.59 52.7408 47.28 64.6908 47.28C76.6408 47.28 86.3308 37.59 86.3308 25.64C86.3308 13.69 76.6508 4 64.6908 4C52.7308 4 43.0508 13.69 43.0508 25.64Z" fill="#FFDB8D"/>
<path d="M64.6908 3.99997C52.7308 3.99997 43.0408 13.7 43.0508 25.65C43.0508 31.37 45.3108 36.85 49.3408 40.9L79.9508 10.29C75.9008 6.24997 70.4108 3.98997 64.6908 3.99997Z" fill="#FFDB8D"/>
<path d="M43.1909 28.03C41.8609 16.15 50.4209 5.43998 62.2909 4.11998C74.1709 2.78998 84.8809 11.35 86.2009 23.22C86.9809 30.18 84.3409 37.09 79.1209 41.76" stroke="black" stroke-width="3" stroke-linecap="round" stroke-linejoin="round"/>
<path d="M65.25 13.57V9.73999" stroke="black" stroke-width="3" stroke-linecap="round" stroke-linejoin="round"/>
<path d="M71.0003 13.57H63.2103C60.3703 13.57 58.0703 15.88 58.0703 18.72C58.0703 20.82 59.3503 22.71 61.2903 23.49L69.2003 26.66C71.8403 27.72 73.1103 30.72 72.0503 33.35C71.2703 35.3 69.3803 36.57 67.2803 36.57H59.4903" stroke="black" stroke-width="3" stroke-linecap="round" stroke-linejoin="round"/>
<path d="M65.25 40.3999V36.5699" stroke="black" stroke-width="3" stroke-linecap="round" stroke-linejoin="round"/>
<path d="M59.5902 78.57C64.9402 74.65 68.1602 68.46 68.3102 61.83C68.3102 49.13 55.9602 38.83 40.7102 38.83C37.7002 38.83 34.7002 39.26 31.8002 40.09C30.0702 37.66 27.6602 35.81 24.8702 34.78C23.8702 34.43 22.7802 34.97 22.4302 35.97C22.3602 36.17 22.3302 36.37 22.3302 36.58V44.78C19.2202 47.09 16.8302 50.22 15.4102 53.83H11.5802C10.5202 53.83 9.66016 54.69 9.66016 55.75V67.25C9.66016 68.31 10.5202 69.17 11.5802 69.17H15.4102C16.9402 73.27 19.6302 76.85 23.1402 79.47L20.7402 85.99C19.8002 88.35 20.9502 91.03 23.3102 91.97C25.6702 92.91 28.3502 91.76 29.2902 89.4C29.3202 89.32 29.3502 89.25 29.3702 89.17L31.4702 83.48C37.9902 85.44 44.9702 85.28 51.4002 83.05L53.6602 89.18C54.4702 91.59 57.0902 92.88 59.4902 92.06C61.8902 91.24 63.1902 88.63 62.3702 86.23C62.3402 86.15 62.3202 86.08 62.2902 86L59.5902 78.59V78.57Z" fill="white"/>
<path d="M25.0401 34.83L24.8701 34.76C23.8701 34.41 22.7801 34.95 22.4301 35.95C22.3601 36.15 22.3301 36.35 22.3301 36.56C23.2201 35.95 24.1301 35.38 25.0401 34.83Z" fill="#FFDB8D"/>
<path d="M68.3102 61.82C68.3102 60.98 68.2502 60.13 68.1402 59.3C63.7302 69.64 53.3902 76.18 42.1602 75.73C32.8202 75.95 23.9802 71.55 18.5402 63.96C17.8302 62.83 16.6002 62.13 15.2602 62.1H9.66016V67.25C9.66016 68.31 10.5202 69.17 11.5802 69.17H15.4102C16.9502 73.27 19.6302 76.84 23.1402 79.45L20.7402 85.97C19.8002 88.33 20.9502 91.01 23.3102 91.95C25.6702 92.89 28.3502 91.74 29.2902 89.38C29.3202 89.3 29.3502 89.23 29.3702 89.15L31.4702 83.46C37.9902 85.42 44.9702 85.26 51.4002 83.03L53.6602 89.16C54.4702 91.57 57.0902 92.86 59.4902 92.04C61.8902 91.22 63.1902 88.61 62.3702 86.21C62.3402 86.13 62.3202 86.06 62.2902 85.98L59.6102 78.57C64.9502 74.64 68.1702 68.46 68.3202 61.83L68.3102 61.82Z" fill="white"/>
<path d="M59.5902 78.57C64.9402 74.65 68.1602 68.46 68.3102 61.83C68.3102 49.13 55.9602 38.83 40.7102 38.83C37.7002 38.83 34.7002 39.26 31.8002 40.09C30.0702 37.66 27.6602 35.81 24.8702 34.78C23.8702 34.43 22.7802 34.97 22.4302 35.97C22.3602 36.17 22.3302 36.37 22.3302 36.58V44.78C19.2202 47.09 16.8302 50.22 15.4102 53.83H11.5802C10.5202 53.83 9.66016 54.69 9.66016 55.75V67.25C9.66016 68.31 10.5202 69.17 11.5802 69.17H15.4102C16.9402 73.27 19.6302 76.85 23.1402 79.47L20.7402 85.99C19.8002 88.35 20.9502 91.03 23.3102 91.97C25.6702 92.91 28.3502 91.76 29.2902 89.4C29.3202 89.32 29.3502 89.25 29.3702 89.17L31.4702 83.48C37.9902 85.44 44.9702 85.28 51.4002 83.05L53.6602 89.18C54.4702 91.59 57.0902 92.88 59.4902 92.06C61.8902 91.24 63.1902 88.63 62.3702 86.23C62.3402 86.15 62.3202 86.08 62.2902 86L59.5902 78.59V78.57Z" stroke="black" stroke-width="3" stroke-linecap="round" stroke-linejoin="round"/>
<path d="M68.3105 61.82C74.4405 61.82 77.5106 58.75 77.5106 54.15" stroke="black" stroke-width="3" stroke-linecap="round" stroke-linejoin="round"/>
<path d="M27.8799 55.73C28.4099 55.73 28.8399 56.16 28.8399 56.69C28.8399 57.22 28.4099 57.65 27.8799 57.65C27.3499 57.65 26.9199 57.22 26.9199 56.69C26.9199 56.16 27.3499 55.73 27.8799 55.73Z" stroke="black" stroke-width="3" stroke-linecap="round" stroke-linejoin="round"/>
</svg>
