<svg width="96" height="96" viewBox="0 0 96 96" fill="none" xmlns="http://www.w3.org/2000/svg">
<path d="M56.37 11.1899V77.0599H6V11.1899C6.01 6.91994 9.48 3.44994 13.75 3.43994H48.63C52.9 3.44994 56.37 6.91994 56.38 11.1899H56.37Z" fill="#FFDB8D"/>
<path d="M56.37 22.2599V11.1899C56.36 6.91994 52.89 3.44994 48.62 3.43994H13.75C9.48 3.44994 6.01 6.91994 6 11.1899V72.6399L56.37 22.2599Z" fill="#FFDB8D"/>
<mask id="path-3-inside-1_14980_5336" fill="white">
<path d="M6.14062 15H56.1406V80H6.14062V15Z"/>
</mask>
<path d="M6.14062 15H56.1406V80H6.14062V15Z" fill="white"/>
<path d="M6.14062 15V18H56.1406V15V12H6.14062V15ZM56.1406 80V77H6.14062V80V83H56.1406V80Z" fill="black" mask="url(#path-3-inside-1_14980_5336)"/>
<path d="M56.1406 80V86.5C56.1307 90.0813 52.6862 92.9916 48.4476 93H13.8337C9.59506 92.9916 6.15055 90.0813 6.14062 86.5V80H56.1406Z" fill="#FFDB8D"/>
<path d="M13.75 3.43994H48.62C48.62 3.43994 56.37 3.43994 56.37 11.1899V84.8199C56.37 84.8199 56.37 92.5699 48.62 92.5699H13.75C13.75 92.5699 6 92.5699 6 84.8199V11.1899C6 11.1899 6 3.43994 13.75 3.43994Z" stroke="black" stroke-width="3" stroke-linecap="round" stroke-linejoin="round"/>
<path d="M23.9199 9H38.4499" stroke="black" stroke-width="3" stroke-linecap="round" stroke-linejoin="round"/>
<circle cx="30.1406" cy="85" r="2" fill="black"/>
<rect x="24.8125" y="24.6272" width="62.2373" height="46.3729" rx="3.66102" fill="#FFDB8D"/>
<path d="M80.543 22.999C84.8111 22.9993 88.2713 26.4603 88.2715 30.7285V63.2705C88.2715 67.5389 84.8113 70.9988 80.543 70.999H31.7295C27.461 70.999 24 67.539 24 63.2705V30.7285C24.0002 26.4602 27.4611 22.999 31.7295 22.999H80.543ZM31.7295 25.4404C28.8091 25.4404 26.4416 27.8081 26.4414 30.7285V63.2705C26.4414 66.1911 28.8089 68.5586 31.7295 68.5586H80.543C83.4633 68.5584 85.8311 66.1909 85.8311 63.2705V30.7285C85.8308 27.8083 83.4632 25.4407 80.543 25.4404H31.7295ZM41.4902 31.1357C43.0627 31.1358 44.3378 32.4109 44.3379 33.9834V40.4922C44.3376 42.0645 43.0626 43.3398 41.4902 43.3398H34.9814C33.4091 43.3398 32.134 42.0645 32.1338 40.4922V33.9834C32.1339 32.4109 33.409 31.1358 34.9814 31.1357H41.4902ZM34.9814 33.5771C34.7569 33.5772 34.5753 33.7589 34.5752 33.9834V40.4922C34.5754 40.7166 34.757 40.8983 34.9814 40.8984H41.4902C41.7147 40.8984 41.8962 40.7166 41.8965 40.4922V33.9834C41.8964 33.7589 41.7148 33.5772 41.4902 33.5771H34.9814Z" fill="black"/>
</svg>
